<?xml version="1.0" standalone="no"?>
<svg xmlns:xlink="http://www.w3.org/1999/xlink" id="wave" style="transform:rotate(0deg); transition: 0.3s" viewBox="0 0 1440 490" version="1.1" xmlns="http://www.w3.org/2000/svg"><defs><linearGradient id="sw-gradient-0" x1="0" x2="0" y1="1" y2="0"><stop stop-color="rgba(0, 203.172, 255, 1)" offset="0%"/><stop stop-color="rgba(11, 155.816, 255, 1)" offset="100%"/></linearGradient></defs><path style="transform:translate(0, 0px); opacity:1" fill="url(#sw-gradient-0)" d="M0,147L60,147C120,147,240,147,360,196C480,245,600,343,720,334.8C840,327,960,212,1080,187.8C1200,163,1320,229,1440,285.8C1560,343,1680,392,1800,383.8C1920,376,2040,310,2160,310.3C2280,310,2400,376,2520,351.2C2640,327,2760,212,2880,171.5C3000,131,3120,163,3240,187.8C3360,212,3480,229,3600,212.3C3720,196,3840,147,3960,106.2C4080,65,4200,33,4320,24.5C4440,16,4560,33,4680,106.2C4800,180,4920,310,5040,326.7C5160,343,5280,245,5400,204.2C5520,163,5640,180,5760,163.3C5880,147,6000,98,6120,98C6240,98,6360,147,6480,171.5C6600,196,6720,196,6840,228.7C6960,261,7080,327,7200,326.7C7320,327,7440,261,7560,253.2C7680,245,7800,294,7920,310.3C8040,327,8160,310,8280,326.7C8400,343,8520,392,8580,416.5L8640,441L8640,490L8580,490C8520,490,8400,490,8280,490C8160,490,8040,490,7920,490C7800,490,7680,490,7560,490C7440,490,7320,490,7200,490C7080,490,6960,490,6840,490C6720,490,6600,490,6480,490C6360,490,6240,490,6120,490C6000,490,5880,490,5760,490C5640,490,5520,490,5400,490C5280,490,5160,490,5040,490C4920,490,4800,490,4680,490C4560,490,4440,490,4320,490C4200,490,4080,490,3960,490C3840,490,3720,490,3600,490C3480,490,3360,490,3240,490C3120,490,3000,490,2880,490C2760,490,2640,490,2520,490C2400,490,2280,490,2160,490C2040,490,1920,490,1800,490C1680,490,1560,490,1440,490C1320,490,1200,490,1080,490C960,490,840,490,720,490C600,490,480,490,360,490C240,490,120,490,60,490L0,490Z"/></svg>